<svg width="33" height="33" xmlns="http://www.w3.org/2000/svg">

 <g>
  <title>background</title>
  <rect fill="none" id="canvas_background" height="402" width="582" y="-1" x="-1"/>
 </g>
 <g>
  <title>Layer 1</title>
  <circle id="svg_1" fill="#ff7f00" r="16.5" cy="16.5" cx="16.5"/>
  <path id="svg_2" fill="white" d="m25.5118,9.85112c0.2933,0.30148 0.3096,0.64368 0.0407,0.96148c-0.1955,0.22 -0.2281,0.2282 -1.1978,0.2689c-0.9288,0.0407 -1.0103,0.057 -1.0348,0.2037c-0.0081,0.0896 -0.0733,0.3667 -0.1303,0.6111c-0.2363,0.9207 -0.3912,1.5237 -0.5134,1.9963c-0.0652,0.2689 -0.1711,0.7089 -0.2444,0.9778c-0.0652,0.2689 -0.1711,0.7089 -0.2445,0.9778c-0.0651,0.2688 -0.1711,0.6926 -0.2281,0.937c-0.5948,2.4281 -0.6763,2.6237 -1.2059,2.9007c-0.1386,0.0734 -0.383,0.1549 -0.5378,0.1874c-0.3096,0.0571 -0.383,0.1956 -0.1141,0.2363c0.2608,0.0408 0.9208,0.7415 1.0919,1.1652c0.717,1.76 -1.1897,3.6097 -2.9008,2.8111c-1.0918,-0.5051 -1.6052,-1.6948 -1.1978,-2.7703c0.1793,-0.4645 0.66,-0.9941 1.043,-1.1571c0.1548,-0.0652 0.2607,-0.1548 0.2363,-0.1955c-0.0652,-0.106 -4.9867,-0.106 -5.0519,0c-0.0244,0.0407 0.0815,0.1303 0.2363,0.1955c0.3667,0.1548 0.8637,0.6845 1.0349,1.1245c0.717,1.7518 -1.1978,3.6015 -2.9008,2.8029c-1.0918,-0.5051 -1.6052,-1.6948 -1.1978,-2.7703c0.1793,-0.4645 0.66,-0.9941 1.043,-1.1571c0.3096,-0.1303 0.3015,-0.277 -0.0163,-0.277c-0.2444,0 -0.7578,-0.2526 -0.937,-0.4563c-0.1711,-0.1956 -0.4808,-0.8719 -0.4808,-1.0593c0,-0.0733 -0.057,-0.3014 -0.11405,-0.5133c-0.06518,-0.2037 -0.17926,-0.5867 -0.25259,-0.8393c-0.22,-0.8148 -0.36667,-1.3525 -0.48889,-1.7925c-0.05704,-0.2363 -0.17111,-0.6519 -0.24444,-0.9208c-0.08149,-0.2689 -0.19556,-0.6926 -0.26075,-0.937c-0.06518,-0.2445 -0.17111,-0.6111 -0.23629,-0.8148c-0.06519,-0.2037 -0.11408,-0.4482 -0.11408,-0.5541l0,-0.1793l6.07039,0c4.9133,0 6.0867,0.0163 6.1193,0.106c0.0162,0.057 -0.0163,0.2444 -0.0897,0.4074c-0.0652,0.1629 -0.1222,0.3992 -0.1222,0.5296c0,0.1304 -0.0489,0.2852 -0.1059,0.3341c-0.0815,0.0651 -1.5645,0.0977 -5.0356,0.1059l-4.9215,0.0244l0.0163,0.2037c0.0163,0.1141 0.0815,0.4074 0.1548,0.6519c0.0734,0.2444 0.1874,0.6437 0.2445,0.8718c0.0652,0.2363 0.1711,0.6356 0.2363,0.88c0.0733,0.2445 0.1792,0.6519 0.2444,0.8963c0.0734,0.2445 0.1874,0.66 0.2608,0.9126c0.0733,0.2608 0.1385,0.5215 0.1548,0.5785c0.0244,0.0815 0.9126,0.0978 4.2452,0.0815c4.1474,-0.0244 4.2207,-0.0244 4.2452,-0.1874c0.0081,-0.0896 0.0733,-0.3829 0.1466,-0.6518c0.0734,-0.2689 0.1793,-0.6926 0.2363,-0.9371c0.1222,-0.4889 0.2852,-1.1489 0.4808,-1.9392c0.0733,-0.2771 0.1792,-0.7171 0.2444,-0.9778c0.0652,-0.2526 0.1793,-0.7007 0.2526,-0.9941c0.0733,-0.2933 0.1874,-0.7496 0.2526,-1.0185c0.3422,-1.3689 0.4889,-1.6459 1.0185,-1.91481c0.2608,-0.13852 0.4808,-0.16296 1.4178,-0.16296l1.1163,0l0.2363,0.23629zm-6.8608,11.73338c-0.1629,0.1629 -0.2363,0.3177 -0.2363,0.497c0,0.3504 0.383,0.7333 0.7334,0.7333c0.3503,0 0.7333,-0.3829 0.7333,-0.7333c0,-0.1793 -0.0733,-0.3341 -0.2363,-0.497c-0.3259,-0.3178 -0.6681,-0.3178 -0.9941,0zm-6.6,0c-0.1629,0.1629 -0.2363,0.3177 -0.2363,0.497c0,0.3504 0.383,0.7333 0.7334,0.7333c0.3503,0 0.7333,-0.3829 0.7333,-0.7333c0,-0.1793 -0.0733,-0.3341 -0.2363,-0.497c-0.3259,-0.3178 -0.6681,-0.3178 -0.9941,0z"/>
 </g>
</svg>